<svg id="visual" viewBox="0 0 900 450" width="900" height="450" xmlns="http://www.w3.org/2000/svg" xmlns:xlink="http://www.w3.org/1999/xlink" version="1.1"><path d="M542 450L560 439.3C578 428.7 614 407.3 616.2 385.8C618.3 364.3 586.7 342.7 577 321.2C567.3 299.7 579.7 278.3 597.5 257C615.3 235.7 638.7 214.3 640.2 193C641.7 171.7 621.3 150.3 612.5 128.8C603.7 107.3 606.3 85.7 594 64.2C581.7 42.7 554.3 21.3 540.7 10.7L527 0L900 0L900 10.7C900 21.3 900 42.7 900 64.2C900 85.7 900 107.3 900 128.8C900 150.3 900 171.7 900 193C900 214.3 900 235.7 900 257C900 278.3 900 299.7 900 321.2C900 342.7 900 364.3 900 385.8C900 407.3 900 428.7 900 439.3L900 450Z" fill="#32cd32"></path><path d="M657 450L654 439.3C651 428.7 645 407.3 636 385.8C627 364.3 615 342.7 617.2 321.2C619.3 299.7 635.7 278.3 647.3 257C659 235.7 666 214.3 661.3 193C656.7 171.7 640.3 150.3 639.2 128.8C638 107.3 652 85.7 657.7 64.2C663.3 42.7 660.7 21.3 659.3 10.7L658 0L900 0L900 10.7C900 21.3 900 42.7 900 64.2C900 85.7 900 107.3 900 128.8C900 150.3 900 171.7 900 193C900 214.3 900 235.7 900 257C900 278.3 900 299.7 900 321.2C900 342.7 900 364.3 900 385.8C900 407.3 900 428.7 900 439.3L900 450Z" fill="#24cb47"></path><path d="M744 450L739.7 439.3C735.3 428.7 726.7 407.3 717.2 385.8C707.7 364.3 697.3 342.7 691.2 321.2C685 299.7 683 278.3 683.7 257C684.3 235.7 687.7 214.3 686 193C684.3 171.7 677.7 150.3 678.5 128.8C679.3 107.3 687.7 85.7 697 64.2C706.3 42.7 716.7 21.3 721.8 10.7L727 0L900 0L900 10.7C900 21.3 900 42.7 900 64.2C900 85.7 900 107.3 900 128.8C900 150.3 900 171.7 900 193C900 214.3 900 235.7 900 257C900 278.3 900 299.7 900 321.2C900 342.7 900 364.3 900 385.8C900 407.3 900 428.7 900 439.3L900 450Z" fill="#16c858"></path><path d="M741 450L753.5 439.3C766 428.7 791 407.3 801.7 385.8C812.3 364.3 808.7 342.7 807.2 321.2C805.7 299.7 806.3 278.3 801 257C795.7 235.7 784.3 214.3 779.7 193C775 171.7 777 150.3 779 128.8C781 107.3 783 85.7 774 64.2C765 42.7 745 21.3 735 10.7L725 0L900 0L900 10.7C900 21.3 900 42.7 900 64.2C900 85.7 900 107.3 900 128.8C900 150.3 900 171.7 900 193C900 214.3 900 235.7 900 257C900 278.3 900 299.7 900 321.2C900 342.7 900 364.3 900 385.8C900 407.3 900 428.7 900 439.3L900 450Z" fill="#0ac666"></path><path d="M801 450L803.2 439.3C805.3 428.7 809.7 407.3 817 385.8C824.3 364.3 834.7 342.7 841.8 321.2C849 299.7 853 278.3 846.3 257C839.7 235.7 822.3 214.3 822 193C821.7 171.7 838.3 150.3 844.3 128.8C850.3 107.3 845.7 85.7 839.2 64.2C832.7 42.7 824.3 21.3 820.2 10.7L816 0L900 0L900 10.7C900 21.3 900 42.7 900 64.2C900 85.7 900 107.3 900 128.8C900 150.3 900 171.7 900 193C900 214.3 900 235.7 900 257C900 278.3 900 299.7 900 321.2C900 342.7 900 364.3 900 385.8C900 407.3 900 428.7 900 439.3L900 450Z" fill="#09c372"></path></svg>